<svg xmlns="http://www.w3.org/2000/svg" xmlns:xlink="http://www.w3.org/1999/xlink" viewBox="1383 1002 32 32">
  <defs>
    <style>
      .cls-1 {
        clip-path: url(#clip-ride);
      }

      .cls-2 {
        fill: #d5d5d5;
        stroke: #d5d5d5;
      }

      .cls-3 {
        fill: #fff;
      }
    </style>
    <clipPath id="clip-ride">
      <rect x="1383" y="1002" width="32" height="32"/>
    </clipPath>
  </defs>
  <g id="ride" class="cls-1">
    <rect class="cls-3" x="1383" y="1002" width="32" height="32"/>
    <path id="Path_487" data-name="Path 487" class="cls-2" d="M-1383-988.5a13.515,13.515,0,0,1,13.5-13.5,13.515,13.515,0,0,1,13.5,13.5,13.515,13.515,0,0,1-13.5,13.5A13.515,13.515,0,0,1-1383-988.5Zm3,0a10.512,10.512,0,0,0,10.5,10.5,10.512,10.512,0,0,0,10.5-10.5,10.511,10.511,0,0,0-10.5-10.5A10.512,10.512,0,0,0-1380-988.5Zm2,0a8.51,8.51,0,0,1,8.5-8.5,8.51,8.51,0,0,1,8.5,8.5,8.51,8.51,0,0,1-8.5,8.5A8.51,8.51,0,0,1-1378-988.5Zm9,3.466v4.018a7.468,7.468,0,0,0,4.435-1.841l-2.839-2.84A3.488,3.488,0,0,1-1369-985.035Zm-5.436,2.178a7.472,7.472,0,0,0,4.436,1.841v-4.018a3.488,3.488,0,0,1-1.6-.663Zm-.707-.707,2.84-2.84a3.5,3.5,0,0,1-.662-1.6h-4.019A7.474,7.474,0,0,0-1375.142-983.564Zm8.445-2.84,2.84,2.84a7.471,7.471,0,0,0,1.841-4.435h-4.019A3.475,3.475,0,0,1-1366.7-986.4Zm-5.3-2.1a2.5,2.5,0,0,0,2.5,2.5,2.5,2.5,0,0,0,2.5-2.5,2.5,2.5,0,0,0-2.5-2.5A2.5,2.5,0,0,0-1372-988.5Zm5.3-2.1a3.479,3.479,0,0,1,.662,1.6h4.019a7.473,7.473,0,0,0-1.841-4.435Zm-10.286,1.6h4.02a3.48,3.48,0,0,1,.661-1.595l-2.841-2.84A7.468,7.468,0,0,0-1376.984-989Zm2.548-5.143,2.84,2.841a3.481,3.481,0,0,1,1.6-.662v-4.019A7.47,7.47,0,0,0-1374.436-994.143Zm5.436,2.179a3.489,3.489,0,0,1,1.6.661l2.839-2.84a7.467,7.467,0,0,0-4.435-1.841Z" transform="translate(2768.5 2006.5)"/>
  </g>
</svg>
